<svg width="181" height="33" viewBox="0 0 181 33" fill="none" xmlns="http://www.w3.org/2000/svg">
<path fill-rule="evenodd" clip-rule="evenodd" d="M0 32.5367C0 32.5367 20.3632 0.0234503 20.468 0.0234503C26.3974 -0.0274247 30.525 0.0234503 30.525 0.0234503C30.525 0.0234503 21.5213 9.4037 23.1313 13.2922C23.1313 13.2922 52.8724 -1.2553 61.0501 0.203575C61.0501 0.203575 20.8082 26.0976 16.8616 32.5972L0.0027218 32.5381L0 32.5367Z" fill="#222222"/>
<path fill-rule="evenodd" clip-rule="evenodd" d="M32.2397 22.6751L39.6335 17.0569C39.6335 17.0569 48.1514 25.542 48.1514 32.5971H41.5265C41.5265 32.5971 36.6872 24.0501 32.2397 22.6751Z" fill="#222222"/>
<path d="M52.1485 32.5958H69.2496C71.5849 32.5958 73.9542 29.9021 74.5721 26.6626C75.4648 22.0756 76.2895 17.5986 77.1469 13.0488C77.7647 9.77213 76.3916 7.11563 74.0563 7.11563H56.9892C55.993 7.11563 54.9628 8.28026 54.6879 9.66351C53.4168 16.4711 52.1131 23.2416 50.842 30.0479C50.5671 31.4311 51.1523 32.5958 52.1485 32.5958ZM60.2186 24.9521C60.7916 21.8735 61.9266 19.6323 63.1976 18.0496C65.1274 15.6461 67.3688 14.7593 68.4249 14.7593C67.773 18.1816 67.1538 21.5298 66.5019 24.9521H60.2186Z" fill="#222222"/>
<path d="M84.5392 32.5958L86.6336 21.4211H86.7017L93.6042 32.5958H99.8194L104.662 7.11563H96.2484L94.0846 18.5089H94.0165L86.8051 7.11563H80.9328L76.1248 32.5958H84.5392Z" fill="#222222"/>
<path d="M129.244 32.5958H146.345C148.68 32.5958 151.049 29.9021 151.667 26.6626C152.56 22.0756 153.385 17.5986 154.242 13.0488C154.86 9.77213 153.487 7.11563 151.151 7.11563H134.084C133.088 7.11563 132.058 8.28026 131.783 9.66351C130.512 16.4711 129.208 23.2416 127.937 30.0479C127.662 31.4311 128.247 32.5958 129.244 32.5958ZM137.314 24.9521C138.756 17.1985 143.77 14.7593 145.521 14.7593C144.869 18.1816 144.25 21.5298 143.598 24.9521H137.314Z" fill="#222222"/>
<path d="M161.319 32.5958L162.52 26.1525H165.165L167.637 32.5958H177.047L174.265 26.1525H174.574C176.084 25.9339 177.527 24.6235 177.973 22.1843C178.488 19.5635 179.209 15.7053 179.725 13.0474C180.309 9.88076 179.038 7.11426 176.634 7.11426H157.748L152.906 32.5944L161.319 32.5958ZM164.684 14.7593H171.003L170.316 18.3631C170.075 19.2363 169.56 19.7464 168.976 19.855H163.722L164.684 14.7593Z" fill="#222222"/>
<path d="M121.032 32.5958C123.333 32.5958 125.736 29.9021 126.354 26.6626L128.929 13.0488C129.513 9.88213 128.208 7.11563 125.839 7.11563H106.952C105.2 16.2154 103.586 24.7706 102.11 32.5958H121.032ZM113.89 14.7593C116.04 14.7579 118.211 14.751 120.209 14.7593L118.252 24.9521H111.967C112.619 21.5669 113.89 14.7593 113.89 14.7593Z" fill="#222222"/>
</svg>
