<svg width="180" height="33" viewBox="0 0 180 33" fill="none" xmlns="http://www.w3.org/2000/svg">
<path fill-rule="evenodd" clip-rule="evenodd" d="M0 32.5359C0 32.5359 20.3632 0.0226111 20.468 0.0226111C26.3974 -0.0282639 30.525 0.0226111 30.525 0.0226111C30.525 0.0226111 21.5213 9.40286 23.1313 13.2914C23.1313 13.2914 52.8724 -1.25614 61.0501 0.202736C61.0501 0.202736 20.8082 26.0967 16.8616 32.5964L0.0027218 32.5372L0 32.5359Z" fill="#FAFAFA"/>
<path fill-rule="evenodd" clip-rule="evenodd" d="M32.2397 22.6743L39.6335 17.056C39.6335 17.056 48.1514 25.5412 48.1514 32.5963H41.5265C41.5265 32.5963 36.6872 24.0493 32.2397 22.6743Z" fill="#FAFAFA"/>
<path d="M52.1485 32.5949H69.2496C71.5849 32.5949 73.9542 29.9013 74.5721 26.6618C75.4648 22.0748 76.2895 17.5978 77.1469 13.0479C77.7647 9.77128 76.3916 7.11478 74.0563 7.11478H56.9892C55.993 7.11478 54.9628 8.2794 54.6879 9.66265C53.4168 16.4703 52.1131 23.2408 50.842 30.047C50.5671 31.4303 51.1523 32.5949 52.1485 32.5949ZM60.2186 24.9513C60.7916 21.8727 61.9266 19.6314 63.1976 18.0488C65.1274 15.6453 67.3688 14.7584 68.4249 14.7584C67.773 18.1808 67.1538 21.5289 66.5019 24.9513H60.2186Z" fill="#FAFAFA"/>
<path d="M84.5392 32.5949L86.6336 21.4203H86.7017L93.6042 32.5949H99.8194L104.662 7.11478H96.2484L94.0846 18.508H94.0165L86.8051 7.11478H80.9328L76.1248 32.5949H84.5392Z" fill="#FAFAFA"/>
<path d="M129.244 32.5949H146.345C148.68 32.5949 151.049 29.9013 151.667 26.6618C152.56 22.0748 153.385 17.5978 154.242 13.0479C154.86 9.77128 153.487 7.11478 151.151 7.11478H134.084C133.088 7.11478 132.058 8.2794 131.783 9.66265C130.512 16.4703 129.208 23.2408 127.937 30.047C127.662 31.4303 128.247 32.5949 129.244 32.5949ZM137.314 24.9513C138.756 17.1977 143.77 14.7584 145.521 14.7584C144.869 18.1808 144.25 21.5289 143.598 24.9513H137.314Z" fill="#FAFAFA"/>
<path d="M161.319 32.5949L162.52 26.1517H165.165L167.637 32.5949H177.047L174.265 26.1517H174.574C176.084 25.933 177.527 24.6227 177.973 22.1834C178.488 19.5627 179.209 15.7044 179.725 13.0465C180.309 9.8799 179.038 7.1134 176.634 7.1134H157.748L152.906 32.5935L161.319 32.5949ZM164.684 14.7584H171.003L170.316 18.3623C170.075 19.2354 169.56 19.7455 168.976 19.8542H163.722L164.684 14.7584Z" fill="#FAFAFA"/>
<path d="M121.032 32.5949C123.333 32.5949 125.736 29.9013 126.354 26.6618L128.929 13.0479C129.513 9.88128 128.208 7.11478 125.839 7.11478H106.952C105.2 16.2145 103.586 24.7698 102.11 32.5949H121.032ZM113.89 14.7584C116.04 14.757 118.211 14.7502 120.209 14.7584L118.252 24.9513H111.967C112.619 21.566 113.89 14.7584 113.89 14.7584Z" fill="#FAFAFA"/>
</svg>
